<svg width="62" height="70" viewBox="0 0 62 70" fill="none" xmlns="http://www.w3.org/2000/svg">
<path d="M39.2835 60.0755C39.1531 58.489 35.7625 56.0431 34.2629 55.0516C33.9825 57.4842 34.7546 58.1584 35.3061 58.5551C33.1675 61.1464 33.7412 64.3062 34.7193 65.496C39.4139 72.2387 47.173 67.7436 47.3034 64.5045C50.8505 63.1295 51.2808 62.26 50.4332 62.1247C44.7996 61.2257 45.0865 55.316 45.9342 52.4735C45.1517 52.7379 42.4784 52.5837 41.2396 52.4735C39.4661 51.6274 40.0659 50.0276 40.8484 49.8954C42.5436 49.8954 43.9129 50.0764 45.4126 49.8954C48.4771 49.5256 49.9116 44.5613 49.9116 43.7477C49.9116 39.7815 45.9559 40.2883 44.4345 41.368C41.5134 43.2718 41.0154 41.3219 41.6308 40.2442C42.348 38.9882 45.2821 38.5255 47.0426 38.3272C47.8903 37.9306 46.5862 34.7576 47.0426 33.6338C48.2163 31.2541 49.7265 33.766 49.6507 34.361C49.3899 36.4102 49.2122 38.4472 49.7159 38.7238C52.8457 40.4425 52.5849 45.0037 52.3241 45.5987C51.3678 47.7801 48.9552 51.7904 48.0859 53.9939C46.7297 60.0226 52.0415 60.2738 54.8018 59.4805C58.2575 58.0262 60.2353 53.2006 60.7352 51.2836C61.3873 48.375 60.67 45.2681 60.344 44.1444C60.1484 43.6816 59.366 45.6648 58.1923 46.3919C56.497 47.3835 55.7146 45.4004 56.497 44.541C57.0187 43.88 58.1923 43.88 60.1484 40.112C61.1395 37.3621 60.5614 34.6474 60.1484 33.6999C55.7146 25.2386 47.3034 28.4777 44.4345 32.1134C43.9781 32.7745 43.6521 32.9728 43.2609 32.9728C34.5237 32.51 33.9586 38.195 34.3933 40.8392C34.5889 43.3511 37.3274 44.7393 37.7186 45.3343C38.3706 46.7224 37.4578 47.3174 36.9361 47.4496C35.6553 47.7741 33.2852 44.3427 33.1544 44.4088C32.5806 45.2549 33.024 48.9039 33.4152 49.631C34.3282 52.0769 37.523 54.5227 41.2396 57.7618C42.674 59.2161 41.9351 62.1247 41.8264 62.918C41.5134 64.3987 40.3267 64.5045 40.0009 64.5045C38.5663 64.5045 39.2835 61.067 39.2835 60.0755Z" fill="#00FF91"/>
<path d="M14.1153 51.1514C9.87739 50.226 3.94381 46.3258 2.18321 43.1528C-1.33763 53.7956 9.87727 53.0684 10.2686 53.1345C11.4421 53.8617 10.5293 54.9855 10.1382 55.3821C9.35565 55.9109 5.83469 54.9855 5.18278 55.3821C4.71332 64.3194 11.6379 64.3502 15.1588 63.2485C16.4109 62.9312 16.6234 63.3807 16.6585 63.6451C17.3888 69.145 23.1352 69.1538 25.9171 68.4707C30.0902 67.446 31.6022 64.1078 31.916 59.8111C32.1767 56.2414 29.022 53.0023 28.3298 52.7379C19.3317 49.3005 20.3097 41.9629 19.9838 42.3596C18.2884 42.6901 15.7694 40.5748 15.4196 40.707C11.5726 42.1613 6.98846 40.4425 6.35643 39.5171C5.18267 37.7984 7.66038 37.3116 7.92119 37.6001C9.35565 39.1866 13.9851 38.856 13.7244 38.3933C12.9418 36.4763 13.7266 34.7743 13.3331 34.8237C7.00835 35.6169 3.55259 30.2625 3.42206 27.4861C3.09617 27.2878 0.357524 30.0774 1.13996 36.4763C1.92239 42.8752 10.3043 47.3686 14.4414 48.375C16.0717 48.7717 17.2453 50.887 17.5711 51.6803C17.8697 52.4074 17.5007 54.9194 17.5711 55.3821C17.7017 56.2414 19.8451 56.2414 20.049 55.9109C20.3753 55.3821 19.9744 53.5973 20.3099 53.0023C21.3533 51.1514 23.1695 52.804 22.9832 53.3329C22.6572 54.2583 22.592 57.2562 23.1785 57.8279C24.8741 59.4805 26.0321 62.8519 25.9171 63.2485C25.2653 65.496 23.2369 64.2401 23.1785 63.2485C22.918 58.8195 16.7889 57.4313 16.0062 57.8279C15.224 58.489 14.0719 59.4365 13.5937 59.6128C9.64894 61.067 10.5946 57.6296 12.6159 56.9686C15.6804 55.5804 15.3262 51.4158 14.1153 51.1514Z" fill="#00FF91"/>
<path d="M28.7209 37.6662C32.3723 41.4209 30.9378 47.8242 29.7642 50.5565C23.609 48.5998 22.8526 45.1359 22.8526 42.029C22.8526 40.2442 21.1519 39.8476 20.5053 39.7154C12.7462 38.1289 16.8931 32.2456 17.18 30.0642C17.4408 28.0811 15.8542 28.2133 15.0935 28.5438C14.2589 28.9669 13.5722 31.188 13.3331 32.2456C5.3524 31.7697 5.44348 25.7674 6.81274 23.7843C4.33503 19.0909 7.26916 12.4805 9.94248 11.8855C9.55126 15.4552 13.9199 20.8008 14.8327 21.1401C16.7888 21.8673 17.2061 19.5536 16.7888 19.3553C15.1196 18.5621 12.7183 14.2653 12.4202 13.2076C10.4641 6.26668 16.3758 4.43779 19.0057 4.81238C20.9357 0.264416 25.2 0.713925 27.0908 1.50718C33.1547 4.05105 30.9378 11.3126 28.9165 12.9432C32.5679 17.1739 30.1336 21.4045 28.4601 22.991C30.7552 24.9477 30.8677 29.2048 30.4162 29.8659C27.156 34.6384 23.0574 30.2625 23.3091 28.015C24.4045 18.2315 24.0328 13.6042 23.7003 12.4805C22.8526 9.61595 19.3969 8.2498 18.2232 8.38201C16.0063 8.71253 17.0496 11.0211 17.6364 10.9601C20.1793 10.6957 21.4354 12.6788 21.353 13.5381C20.8966 18.2976 19.962 27.6183 20.5053 29.2709C22.2658 34.6254 26.6996 34.9559 28.8513 34.4932C28.6427 35.4451 28.2709 37.2034 28.7209 37.6662Z" fill="#00FF91"/>
<path d="M34.0674 12.5466C32.7112 13.9215 32.6764 16.2043 32.8286 17.1739C33.1546 17.3061 38.849 11.5109 39.4141 10.4973C39.2055 9.49256 39.5011 8.00742 39.6749 7.39045C40.666 5.80395 41.8266 6.72941 42.2831 7.39045C42.6482 8.92407 42.1309 10.938 41.8266 11.7533C40.6269 13.7629 37.3276 16.601 35.828 17.7688C31.968 21.2591 33.046 25.3928 34.0675 27.0234C32.6591 28.9272 33.1764 32.3999 33.6111 33.8982C36.5322 30.4608 40.9573 29.9981 42.8047 30.1964C49.0642 23.0043 56.5408 25.9657 59.4966 28.3455C61.1658 23.11 56.845 20.6113 54.476 20.0163C55.3106 15.5741 52.5634 12.9212 51.0854 12.1499C51.0854 13.6042 48.586 16.0721 47.3689 17.1739C48.8685 18.2976 49.651 21.193 49.3902 21.9334C48.7381 23.7843 46.6516 22.9249 46.6516 22.1317C46.756 20.4394 45.7605 18.8705 45.2172 18.2976C40.8486 20.413 41.3702 24.1148 40.653 24.6436C38.5665 25.7013 38.1044 23.8504 38.4361 22.6605C39.1142 20.2279 42.0318 17.1739 43.0655 16.7111C48.0861 14.4636 49.1511 10.299 49.0642 8.51422C49.0642 3.02757 43.9783 1.30886 41.2398 1.30886C32.1114 1.36175 32.6547 8.82271 34.0674 12.5466Z" fill="#00FF91"/>
<path d="M39.2835 60.0755C39.1531 58.489 35.7625 56.0431 34.2629 55.0516C33.9825 57.4842 34.7546 58.1584 35.3061 58.5551C33.1675 61.1464 33.7412 64.3062 34.7193 65.496C39.4139 72.2387 47.173 67.7436 47.3034 64.5045C50.8505 63.1295 51.2808 62.26 50.4332 62.1247C44.7996 61.2257 45.0865 55.316 45.9342 52.4735C45.1517 52.7379 42.4784 52.5837 41.2396 52.4735C39.4661 51.6274 40.0659 50.0276 40.8484 49.8954C42.5436 49.8954 43.9129 50.0764 45.4126 49.8954C48.4771 49.5256 49.9116 44.5613 49.9116 43.7477C49.9116 39.7815 45.9559 40.2883 44.4345 41.368C41.5134 43.2718 41.0154 41.3219 41.6308 40.2442C42.348 38.9882 45.2821 38.5255 47.0426 38.3272C47.8903 37.9306 46.5862 34.7576 47.0426 33.6338C48.2163 31.2541 49.7265 33.766 49.6507 34.361C49.3899 36.4102 49.2122 38.4472 49.7159 38.7238C52.8457 40.4425 52.5849 45.0037 52.3241 45.5987C51.3678 47.7801 48.9552 51.7904 48.0859 53.9939C46.7297 60.0226 52.0415 60.2738 54.8018 59.4805C58.2575 58.0262 60.2353 53.2006 60.7352 51.2836C61.3873 48.375 60.67 45.2681 60.344 44.1444C60.1484 43.6816 59.366 45.6648 58.1923 46.3919C56.497 47.3835 55.7146 45.4004 56.497 44.541C57.0187 43.88 58.1923 43.88 60.1484 40.112C61.1395 37.3621 60.5614 34.6474 60.1484 33.6999C55.7146 25.2386 47.3034 28.4777 44.4345 32.1134C43.9781 32.7745 43.6521 32.9728 43.2609 32.9728C34.5237 32.51 33.9586 38.195 34.3933 40.8392C34.5889 43.3511 37.3274 44.7393 37.7186 45.3343C38.3706 46.7224 37.4578 47.3174 36.9361 47.4496C35.6553 47.7741 33.2852 44.3427 33.1544 44.4088C32.5806 45.2549 33.024 48.9039 33.4152 49.631C34.3282 52.0769 37.523 54.5227 41.2396 57.7618C42.674 59.2161 41.9351 62.1247 41.8264 62.918C41.5134 64.3987 40.3267 64.5045 40.0009 64.5045C38.5663 64.5045 39.2835 61.067 39.2835 60.0755Z" stroke="#00FF91"/>
<path d="M14.1153 51.1514C9.87739 50.226 3.94381 46.3258 2.18321 43.1528C-1.33763 53.7956 9.87727 53.0684 10.2686 53.1345C11.4421 53.8617 10.5293 54.9855 10.1382 55.3821C9.35565 55.9109 5.83469 54.9855 5.18278 55.3821C4.71332 64.3194 11.6379 64.3502 15.1588 63.2485C16.4109 62.9312 16.6234 63.3807 16.6585 63.6451C17.3888 69.145 23.1352 69.1538 25.9171 68.4707C30.0902 67.446 31.6022 64.1078 31.916 59.8111C32.1767 56.2414 29.022 53.0023 28.3298 52.7379C19.3317 49.3005 20.3097 41.9629 19.9838 42.3596C18.2884 42.6901 15.7694 40.5748 15.4196 40.707C11.5726 42.1613 6.98846 40.4425 6.35643 39.5171C5.18267 37.7984 7.66038 37.3116 7.92119 37.6001C9.35565 39.1866 13.9851 38.856 13.7244 38.3933C12.9418 36.4763 13.7266 34.7743 13.3331 34.8237C7.00835 35.6169 3.55259 30.2625 3.42206 27.4861C3.09617 27.2878 0.357524 30.0774 1.13996 36.4763C1.92239 42.8752 10.3043 47.3686 14.4414 48.375C16.0717 48.7717 17.2453 50.887 17.5711 51.6803C17.8697 52.4074 17.5007 54.9194 17.5711 55.3821C17.7017 56.2414 19.8451 56.2414 20.049 55.9109C20.3753 55.3821 19.9744 53.5973 20.3099 53.0023C21.3533 51.1514 23.1695 52.804 22.9832 53.3329C22.6572 54.2583 22.592 57.2562 23.1785 57.8279C24.8741 59.4805 26.0321 62.8519 25.9171 63.2485C25.2653 65.496 23.2369 64.2401 23.1785 63.2485C22.918 58.8195 16.7889 57.4313 16.0062 57.8279C15.224 58.489 14.0719 59.4365 13.5937 59.6128C9.64894 61.067 10.5946 57.6296 12.6159 56.9686C15.6804 55.5804 15.3262 51.4158 14.1153 51.1514Z" stroke="#00FF91"/>
<path d="M28.7209 37.6662C32.3723 41.4209 30.9378 47.8242 29.7642 50.5565C23.609 48.5998 22.8526 45.1359 22.8526 42.029C22.8526 40.2442 21.1519 39.8476 20.5053 39.7154C12.7462 38.1289 16.8931 32.2456 17.18 30.0642C17.4408 28.0811 15.8542 28.2133 15.0935 28.5438C14.2589 28.9669 13.5722 31.188 13.3331 32.2456C5.3524 31.7697 5.44348 25.7674 6.81274 23.7843C4.33503 19.0909 7.26916 12.4805 9.94248 11.8855C9.55126 15.4552 13.9199 20.8008 14.8327 21.1401C16.7888 21.8673 17.2061 19.5536 16.7888 19.3553C15.1196 18.5621 12.7183 14.2653 12.4202 13.2076C10.4641 6.26668 16.3758 4.43779 19.0057 4.81238C20.9357 0.264416 25.2 0.713925 27.0908 1.50718C33.1547 4.05105 30.9378 11.3126 28.9165 12.9432C32.5679 17.1739 30.1336 21.4045 28.4601 22.991C30.7552 24.9477 30.8677 29.2048 30.4162 29.8659C27.156 34.6384 23.0574 30.2625 23.3091 28.015C24.4045 18.2315 24.0328 13.6042 23.7003 12.4805C22.8526 9.61595 19.3969 8.2498 18.2232 8.38201C16.0063 8.71253 17.0496 11.0211 17.6364 10.9601C20.1793 10.6957 21.4354 12.6788 21.353 13.5381C20.8966 18.2976 19.962 27.6183 20.5053 29.2709C22.2658 34.6254 26.6996 34.9559 28.8513 34.4932C28.6427 35.4451 28.2709 37.2034 28.7209 37.6662Z" stroke="#00FF91"/>
<path d="M34.0674 12.5466C32.7112 13.9215 32.6764 16.2043 32.8286 17.1739C33.1546 17.3061 38.849 11.5109 39.4141 10.4973C39.2055 9.49256 39.5011 8.00742 39.6749 7.39045C40.666 5.80395 41.8266 6.72941 42.2831 7.39045C42.6482 8.92407 42.1309 10.938 41.8266 11.7533C40.6269 13.7629 37.3276 16.601 35.828 17.7688C31.968 21.2591 33.046 25.3928 34.0675 27.0234C32.6591 28.9272 33.1764 32.3999 33.6111 33.8982C36.5322 30.4608 40.9573 29.9981 42.8047 30.1964C49.0642 23.0043 56.5408 25.9657 59.4966 28.3455C61.1658 23.11 56.845 20.6113 54.476 20.0163C55.3106 15.5741 52.5634 12.9212 51.0854 12.1499C51.0854 13.6042 48.586 16.0721 47.3689 17.1739C48.8685 18.2976 49.651 21.193 49.3902 21.9334C48.7381 23.7843 46.6516 22.9249 46.6516 22.1317C46.756 20.4394 45.7605 18.8705 45.2172 18.2976C40.8486 20.413 41.3702 24.1148 40.653 24.6436C38.5665 25.7013 38.1044 23.8504 38.4361 22.6605C39.1142 20.2279 42.0318 17.1739 43.0655 16.7111C48.0861 14.4636 49.1511 10.299 49.0642 8.51422C49.0642 3.02757 43.9783 1.30886 41.2398 1.30886C32.1114 1.36175 32.6547 8.82271 34.0674 12.5466Z" stroke="#00FF91"/>
</svg>
